<svg xmlns="http://www.w3.org/2000/svg" width="20" height="20" fill="none" viewBox="0 0 20 20"><path fill="#fff" d="M15.263 4.737H4.736v10.526h10.527z"/><path fill="#ea4335" d="m15.264 20 4.737-4.737-2.368-.404-2.369.404-.432 2.167z"/><path fill="#188038" d="M0 15.263v3.158A1.58 1.58 0 0 0 1.579 20h3.158l.486-2.368-.486-2.369-2.58-.404z"/><path fill="#1967d2" d="M20.001 4.737V1.579C20.001.707 19.295 0 18.422 0h-3.158q-.432 1.763-.432 2.593 0 .833.432 2.144 1.572.45 2.369.45.796 0 2.368-.45"/><path fill="#fbbc04" d="M20 4.737h-4.736v10.526H20z"/><path fill="#34a853" d="M15.263 15.263H4.736V20h10.527z"/><path fill="#4285f4" d="M15.263 0H1.58A1.58 1.58 0 0 0 0 1.579v13.684h4.737V4.737h10.526z"/><path fill="#4285f4" d="M6.897 12.903q-.591-.398-.815-1.167l.913-.377q.125.474.434.735.31.26.748.259.447 0 .77-.272a.87.87 0 0 0 .322-.694.86.86 0 0 0-.34-.703q-.34-.272-.85-.272h-.527v-.904h.473q.44 0 .739-.237a.78.78 0 0 0 .3-.648q0-.367-.269-.586-.268-.22-.68-.22-.403 0-.64.215a1.26 1.26 0 0 0-.344.527l-.904-.376q.18-.51.662-.899.484-.389 1.234-.389.555 0 .997.214.442.216.694.595.25.38.25.854 0 .483-.233.819a1.6 1.6 0 0 1-.573.514v.054c.293.12.546.318.735.572a1.5 1.5 0 0 1 .286.922q0 .536-.272.957-.274.421-.751.662-.48.241-1.078.242a2.23 2.23 0 0 1-1.281-.397m5.609-4.532-1.003.725-.501-.76L12.8 7.038h.69v6.12h-.984z"/></svg>