<svg xmlns="http://www.w3.org/2000/svg" width="31" height="31" fill="none" viewBox="0 0 31 31"><g filter="url(#a)"><circle cx="15.5" cy="13.5" r="11.5" fill="#8f8261"/><path fill="#dfbd64" d="M25.736 13.698c.333-.987.687-1.524-.022-2.447-.397-.515-1.137-.773-1.824-.794.976-.891 1.095-2.501-.161-3.306-.601-.386-.698-.687-1.01-1.277-.16-.312-.45-.451-.75-.59-.816-.376-1.578-.108-2.286.268.075-.473.053-.902-.258-1.342-.472-.665-1.492-.88-2.222-.72-1.18.27-1.02-.063-1.867-.128-.322-.021-.666-.021-.945.183-.58.418-.73.912-.816 1.491-1.062-1.341-3.37-1.17-3.8.655-1.03-.182-1.716.183-2.092 1.267-.193.569-.043 1.406.386 1.92-1.33-.074-2.404 1.428-1.77 2.716-.795.516-1.15 1.181-.827 2.136.343 1.052 1.556 1.578 2.372 1.696-.601.505-1.213 1.18-1.16 1.986.054.88.398 1.599 1.138 2.028-.386 2.018 2.351 2.179 3.821 1.406-.268.848-.064 1.75.86 2.2.686.344 2.017.838 2.618.14 1.288.966 2.694-.215 2.952-1.6.536.623 1.695 1.02 2.35.956 1.052-.107 1.89-.676 1.932-1.728 1.631-.193 1.878-2.308 1.138-3.628.504.14.976.15 1.492-.225.354-.258.558-.698.697-1.095.258-.74-.204-1.46.054-2.2zm-6.461-6.933c.644-1.267 2.726-.258 2.672.965 0 .097.01.322.258.258.89-.225 1.449.998 1.223 1.717-.15.494-.719.838-1.137 1.063-.752.408-1.879.837-2.748.73a1.1 1.1 0 0 0-.483-.827c-.333-.225-.762-.193-1.106-.021.054-.183.086-.365.054-.58a.87.87 0 0 0-.268-.504 8 8 0 0 0 1.148-1.814 6.6 6.6 0 0 0 .397-1.009zm-3.37 9.015c-2.008.462-2.984-1.975-2.169-3.413a1.93 1.93 0 0 0 .108 1.288c.569 1.256 2.447 1.954 3.166.376.418-.923-.28-2.587-1.481-2.061-.687.3-.891 1.578-.054 1.792.247.065.397-.31.14-.375-.58-.15-.043-1.793.933-.698.602.676-.021 1.62-.74 1.835-.945.28-1.578-.708-1.696-1.491-.268-1.771 1.964-2.265 3.166-1.567.816.472 1.106 1.534.88 2.404-.257 1.03-1.288 1.696-2.254 1.921zm1.094 1.47c-.182.151-.43.087-.6-.053-.216-.182-.312-.762-.355-1.052.3-.064.601-.16.88-.29 0 .086 0 .161.043.215.183.354.44.87.043 1.191zm-1.835-.332c-.15.204-.419.29-.666.258-.676-.097-.547-.827-.31-1.267.343.193.74.28 1.148.29v.14c0 .15-.13.525-.183.579zm-2.018-4.175h.054a3.5 3.5 0 0 0-.118 1.202c-.172.075-.677.032-.74.01a.71.71 0 0 1-.452-.557c-.129-.73.773-.795 1.256-.655m-.44-1.632c.064-.236.311-.31.526-.29.29.033.537.312.719.516q.065.064.129.064c-.258.183-.472.43-.633.709-.011-.011-.033-.033-.043-.033-.355-.182-.848-.472-.709-.955zm-.247 3.982c.118-.268.462-.408.72-.526h.01c.01.054.032.108.043.161.086.269.215.494.365.687-.28.258-.655.537-1.03.28-.204-.14-.204-.398-.119-.59zm1.89-4.765c0-.258.16-.483.375-.612.655-.354.998.483 1.03.977 0 .01 0 .021.01.043-.224.021-.44.053-.643.14a3 3 0 0 0-.408.203c-.043-.054-.096-.107-.16-.182-.108-.097-.205-.494-.216-.57zm0 .923s-.022 0-.033.01v-.031l.021.02zm2.124-.494v-.021c.065-.397.172-.956.676-.977.247 0 .398.204.451.408.065.29-.129.612-.257.848v.032a2.7 2.7 0 0 0-.87-.29m1.728 3.95.172.064c.129.065.462.269.515.333.161.204.161.483.065.709-.3.676-1.084.225-1.406-.162a.4.4 0 0 0-.13-.107c.323-.236.591-.526.784-.848zm.462-.687c-.065 0-.118 0-.172.032.086-.3.129-.622.107-.944h.022c.397-.086.955-.183 1.16.29.096.225-.044.44-.226.558-.247.16-.612.096-.88.064zm-.204-1.631a3 3 0 0 0-.258-.558 1.9 1.9 0 0 0-.429-.483c-.01-.14.397-.344.462-.376.236-.097.504-.022.697.14.537.46-.043 1.051-.483 1.277zM14.53 5.058c.536-.526 1.234-.28 1.824 0 .097.15.29.15.354.043.526-.376 1.095-.601 1.836.107.622.59.311 1.417.086 2.104-.258.762-.73 1.449-1.245 2.06-.72-.225-1.095.451-1.245 1.042-.054-.408-.226-.784-.59-1.02a.98.98 0 0 0-.806-.107c-.354-.72-.611-1.6-.794-2.362-.182-.772.043-1.352.59-1.878zm-3.95 2.136c.257.204.376-.075.322-.247-.537-1.728 2.297-2.147 2.565-.655 0 .022.021.043.032.065-.043 1.051.462 2.275.88 3.112-.375.258-.472.752-.386 1.17.01.065.043.15.064.215-.214-.204-.45-.376-.751-.43a.89.89 0 0 0-.87.355.76.76 0 0 0-.117.751c-.827-.794-1.589-1.857-2.684-2.136l-.064-.032c-.687-.193-.966-.912-.912-1.567.085-1.095 1.18-.912 1.92-.59zM7.479 14.47a1.58 1.58 0 0 1-.58-.816c-.16-.515.172-1.202.773-1.095.354.065.333-.204.204-.354-.751-.87-.354-2.136.751-2.447.666-.182 1.417.268 1.943.623.784.526 1.256 1.352 1.996 1.91-.257.01-.493.086-.708.258-.343.279-.43.719-.311 1.127.096.332.375.558.687.676-1.106.118-2.437.172-3.424.73 0 0 0-.011-.01-.022-.43-.247-.913-.268-1.321-.58zm3.048 5.817c-.719-.075-1.599-.794-1.073-1.567.118-.172.075-.397-.226-.343-.772.128-1.202-.805-1.223-1.45-.022-.73.515-1.298 1.127-1.61.859-.44 2.082-.482 3.091-.579-.043.054-.086.107-.118.172a.89.89 0 0 0 .064.934c.44.622 1.149.31 1.632-.075-.204.364-.29.762-.14 1.17.065.16.172.29.29.386-.537.719-1.385 1.567-1.696 2.511-.558.258-1.084.516-1.728.451m6.215 1.653c-.601.333-1.138.322-1.642-.097-.065-.107-.247-.16-.344-.032-.59.676-1.674.065-2.029-.547-.268-.472-.128-1.073.033-1.546.29-.837 1.02-1.492 1.545-2.19.107.033.215.054.333.065.45.022.826-.322 1.009-.698.032-.064.053-.128.075-.203.075.31.204.611.397.815.215.215.526.28.816.215.118.912.204 1.921.59 2.694 0 .021.01 1.084-.794 1.524zm4.54-2.265c-.194-.043-.365 0-.236.355.118.322-.88 1.084-.945 1.116-.72.386-1.513 0-1.996-.548-.065-.075-.236-.364-.269-.375-.44-.784-.397-1.814-.515-2.683.397-.333.29-.956.097-1.428.29.29.655.494 1.095.45.44-.042.75-.353.89-.761a.9.9 0 0 0-.032-.644c.827.515 1.793 1.213 2.759 1.524.483.247.826.912.933 1.384.194.838-.998 1.793-1.792 1.61zm2.973-5.506c.257.161.14 1.438.129 1.482-.365 1.062-1.6.73-2.372.482-1.127-.364-1.997-1.116-3.017-1.663.28 0 .559-.032.773-.15a.89.89 0 0 0 .44-.827c-.043-.762-.805-.88-1.416-.805.31-.172.568-.418.686-.762.999.14 2.383-.3 3.35-.966.73.043 1.32.344 1.706.988.365.6.322 1.492-.354 1.803-.3.086-.387.386.064.418z"/><path fill="#dfbd64" d="M19.844 12.797h.043zH19.8c.14.075.257.193.333.354.719-.13 1.48-.29 2.114-.623-.751.247-1.62.258-2.404.268m-7.179 3.36a.76.76 0 0 1-.408-.236c-.665.161-1.352.268-2.04.3.817.076 1.643.044 2.459-.064zm.622-.515c-.14.043-.29.086-.44.129.15.01.3-.043.44-.129m-.449-5.195c.14-.053.3-.075.461-.043-.633-.247-1.266-.526-1.835-.88.43.344.902.655 1.374.934zm5.173-.376c.032.204 0 .398-.065.58.3-.15.677-.193.988-.054.708-.225 1.438-.483 1.996-.912-.612.354-1.406.505-2.146.633 1.008-.687 2.039-1.395 2.897-2.243-1.03.848-2.264 1.503-3.445 2.168.59-.622 1.18-1.245 1.664-1.943-.58.623-1.267 1.149-1.932 1.675 0 .032.021.064.032.096zm-1.913 7.385c-.182-.204-.3-.494-.375-.783a1 1 0 0 1-.075.203c-.065.15-.172.29-.29.398-.108.815-.333 1.62-.794 2.286.482-.548.815-1.224 1.03-1.932.032 1.03-.022 2.103-.386 3.005.461-.902.611-2.018.676-3.091.118.472.247.934.365 1.406-.054-.505-.097-1.009-.15-1.503zm2.683-.623c.537.204 1.073.387 1.62.515a14 14 0 0 1-1.727-.848.5.5 0 0 1-.183.033c-.44.043-.794-.161-1.084-.451.054.118.097.258.129.397.59.816 1.18 1.696 1.417 2.619-.129-.88-.57-1.771-1.03-2.587 1.094.816 2.34 1.717 2.973 2.812-.43-.912-1.267-1.738-2.104-2.49zm1.195-2.726c.686.13 1.395.3 1.985.666-.504-.45-1.17-.762-1.803-1.01a1 1 0 0 1-.182.344m.192-.826c.01.064.032.118.032.182 0 .075 0 .15-.021.226 1.062.214 2.48.569 3.434.214-1.03.258-2.447-.322-3.456-.622zm-6.579 3.059c.021-.204.096-.397.204-.58-.301.236-.687.45-1.042.43-.933.772-1.91 1.545-2.973 2.039 1.256-.462 2.437-1.288 3.553-2.083a23 23 0 0 0-1.449 1.986 25 25 0 0 1 1.717-1.792zm-.162-5.904c.236.075.44.226.622.397a1 1 0 0 1-.064-.214 1.5 1.5 0 0 1-.022-.43c-.493-.59-.955-1.223-1.277-1.9.215.666.558 1.289.934 1.9-1.02-.74-2.147-1.61-2.619-2.629.386 1.084 1.481 2.071 2.436 2.898zm-5.174 1.9c.934.57 2.179.73 3.252.87.021-.215.107-.419.258-.59-.666-.44-1.331-.838-1.964-1.331.493.525 1.03.815 1.534 1.577-1.03-.021-2.168-.096-3.08-.526m3.285 1.31a2 2 0 0 1-.043-.215c-.805.183-1.631.365-2.447.376.837.129 1.706.064 2.554 0a.5.5 0 0 1-.064-.161m4.605-3.242c.075-.311.215-.633.43-.848.171-.869.364-1.781.783-2.5-.494.665-.794 1.556-1.063 2.393-.043-1.32-.075-2.683.161-3.95-.354 1.288-.408 2.716-.483 4.09-.311-.72-.612-1.535-.547-2.244-.15.634 0 1.396.182 2.093.333.236.483.59.537.977z"/></g><defs><filter id="a" width="31" height="31" x="0" y="0" color-interpolation-filters="sRGB" filterUnits="userSpaceOnUse"><feFlood flood-opacity="0" result="BackgroundImageFix"/><feColorMatrix in="SourceAlpha" result="hardAlpha" values="0 0 0 0 0 0 0 0 0 0 0 0 0 0 0 0 0 0 127 0"/><feOffset dy="2"/><feGaussianBlur stdDeviation="2"/><feComposite in2="hardAlpha" operator="out"/><feColorMatrix values="0 0 0 0 0 0 0 0 0 0 0 0 0 0 0 0 0 0 0.25 0"/><feBlend in2="BackgroundImageFix" result="effect1_dropShadow_3680_8441"/><feBlend in="SourceGraphic" in2="effect1_dropShadow_3680_8441" result="shape"/></filter></defs></svg>